# Blender v2.76 (sub 0) OBJ File: 'untitled.blend'
# www.blender.org
mtllib portalFin.mtl
o Circle
v -0.000000 2.500000 -0.000000
v -0.000000 2.451963 -0.261421
v -0.000000 2.309699 -0.512796
v -0.000000 2.078674 -0.744464
v -0.000000 1.767767 -0.947523
v -0.000000 1.388925 -1.114169
v 0.000000 0.956709 -1.237999
v 0.000000 0.487726 -1.314252
v 0.000000 0.000000 -1.340000
v 0.000000 -0.487725 -1.314252
v 0.000000 -0.956708 -1.237999
v 0.000000 -1.388925 -1.114169
v 0.000000 -1.767767 -0.947523
v 0.000000 -2.078674 -0.744464
v 0.000000 -2.309699 -0.512796
v 0.000000 -2.451963 -0.261421
v 0.000000 -2.500000 0.000000
v 0.000000 -2.451963 0.261422
v 0.000000 -2.309698 0.512796
v 0.000000 -2.078673 0.744465
v 0.000000 -1.767766 0.947524
v 0.000000 -1.388924 1.114170
v -0.000000 -0.956707 1.237999
v -0.000000 -0.487724 1.314252
v -0.000000 0.000002 1.340000
v -0.000000 0.487728 1.314252
v -0.000000 0.956711 1.237998
v -0.000000 1.388928 1.114168
v -0.000000 1.767769 0.947522
v -0.000000 2.078676 0.744463
v -0.000000 2.309700 0.512794
v -0.000000 2.451964 0.261419
v -0.000000 2.500000 -0.000000
v -0.000000 2.451963 -0.261421
v -0.000000 2.309699 -0.512796
v -0.000000 2.078674 -0.744464
v -0.000000 1.767767 -0.947523
v -0.000000 1.388925 -1.114169
v 0.000000 0.956709 -1.237999
v 0.000000 0.487726 -1.314252
v 0.000000 0.000000 -1.340000
v 0.000000 -0.487725 -1.314252
v 0.000000 -0.956708 -1.237999
v 0.000000 -1.388925 -1.114169
v 0.000000 -1.767767 -0.947523
v 0.000000 -2.078674 -0.744464
v 0.000000 -2.309699 -0.512796
v 0.000000 -2.451963 -0.261421
v 0.000000 -2.500000 0.000000
v 0.000000 -2.451963 0.261422
v 0.000000 -2.309698 0.512796
v 0.000000 -2.078673 0.744465
v 0.000000 -1.767766 0.947524
v 0.000000 -1.388924 1.114170
v -0.000000 -0.956707 1.237999
v -0.000000 -0.487724 1.314252
v -0.000000 0.000002 1.340000
v -0.000000 0.487728 1.314252
v -0.000000 0.956711 1.237998
v -0.000000 1.388928 1.114168
v -0.000000 1.767769 0.947522
v -0.000000 2.078676 0.744463
v -0.000000 2.309700 0.512794
v -0.000000 2.451964 0.261419
v 0.000000 -0.000000 0.000000
vt 0.000000 0.000000
vt 0.551890 0.986699
vt 0.500000 0.996234
vt 0.500000 0.500000
vt 0.448110 0.986699
vt 0.398214 0.958461
vt 0.352229 0.912604
vt 0.311923 0.850891
vt 0.278845 0.775694
vt 0.254265 0.689901
vt 0.239129 0.596811
vt 0.234019 0.500000
vt 0.239129 0.403190
vt 0.254265 0.310100
vt 0.278844 0.224307
vt 0.311923 0.149110
vt 0.352228 0.087397
vt 0.398213 0.041540
vt 0.448109 0.013301
vt 0.500000 0.003766
vt 0.551890 0.013301
vt 0.601786 0.041539
vt 0.647771 0.087396
vt 0.688077 0.149110
vt 0.721155 0.224307
vt 0.745735 0.310099
vt 0.760871 0.403190
vt 0.765981 0.500000
vt 0.760871 0.596810
vt 0.745735 0.689901
vt 0.721155 0.775693
vt 0.688077 0.850891
vt 0.647771 0.912603
vt 0.601786 0.958461
vn 0.000000 0.000000 1.000000
vn 1.000000 0.000000 0.000000
usemtl Material.001
s off
f 3/1/1 2/1/1 34/1/1 35/1/1
f 30/1/1 29/1/1 61/1/1 62/1/1
f 17/1/1 16/1/1 48/1/1 49/1/1
f 4/1/1 3/1/1 35/1/1 36/1/1
f 31/1/1 30/1/1 62/1/1 63/1/1
f 18/1/1 17/1/1 49/1/1 50/1/1
f 5/1/1 4/1/1 36/1/1 37/1/1
f 32/1/1 31/1/1 63/1/1 64/1/1
f 19/1/1 18/1/1 50/1/1 51/1/1
f 6/1/1 5/1/1 37/1/1 38/1/1
f 1/1/1 32/1/1 64/1/1 33/1/1
f 20/1/1 19/1/1 51/1/1 52/1/1
f 7/1/1 6/1/1 38/1/1 39/1/1
f 21/1/1 20/1/1 52/1/1 53/1/1
f 8/1/1 7/1/1 39/1/1 40/1/1
f 22/1/1 21/1/1 53/1/1 54/1/1
f 9/1/1 8/1/1 40/1/1 41/1/1
f 23/1/1 22/1/1 54/1/1 55/1/1
f 10/1/1 9/1/1 41/1/1 42/1/1
f 24/1/1 23/1/1 55/1/1 56/1/1
f 11/1/1 10/1/1 42/1/1 43/1/1
f 25/1/1 24/1/1 56/1/1 57/1/1
f 12/1/1 11/1/1 43/1/1 44/1/1
f 26/1/1 25/1/1 57/1/1 58/1/1
f 13/1/1 12/1/1 44/1/1 45/1/1
f 27/1/1 26/1/1 58/1/1 59/1/1
f 14/1/1 13/1/1 45/1/1 46/1/1
f 28/1/1 27/1/1 59/1/1 60/1/1
f 15/1/1 14/1/1 46/1/1 47/1/1
f 2/1/1 1/1/1 33/1/1 34/1/1
f 29/1/1 28/1/1 60/1/1 61/1/1
f 16/1/1 15/1/1 47/1/1 48/1/1
f 34/2/2 33/3/2 65/4/2
f 33/3/2 64/5/2 65/4/2
f 64/5/2 63/6/2 65/4/2
f 63/6/2 62/7/2 65/4/2
f 62/7/2 61/8/2 65/4/2
f 61/8/2 60/9/2 65/4/2
f 60/9/2 59/10/2 65/4/2
f 59/10/2 58/11/2 65/4/2
f 58/11/2 57/12/2 65/4/2
f 57/12/2 56/13/2 65/4/2
f 56/13/2 55/14/2 65/4/2
f 55/14/2 54/15/2 65/4/2
f 54/15/2 53/16/2 65/4/2
f 53/16/2 52/17/2 65/4/2
f 52/17/2 51/18/2 65/4/2
f 51/18/2 50/19/2 65/4/2
f 50/19/2 49/20/2 65/4/2
f 49/20/2 48/21/2 65/4/2
f 48/21/2 47/22/2 65/4/2
f 47/22/2 46/23/2 65/4/2
f 46/23/2 45/24/2 65/4/2
f 45/24/2 44/25/2 65/4/2
f 44/25/2 43/26/2 65/4/2
f 43/26/2 42/27/2 65/4/2
f 42/27/2 41/28/2 65/4/2
f 41/28/2 40/29/2 65/4/2
f 40/29/2 39/30/2 65/4/2
f 39/30/2 38/31/2 65/4/2
f 38/31/2 37/32/2 65/4/2
f 37/32/2 36/33/2 65/4/2
f 36/33/2 35/34/2 65/4/2
f 35/34/2 34/2/2 65/4/2
